<svg height="512" viewBox="0 0 128 128" width="512" xmlns="http://www.w3.org/2000/svg"><g><g><path d="m14 17h100a8 8 0 0 1 8 8v77a9 9 0 0 1 -9 9h-98a9 9 0 0 1 -9-9v-77a8 8 0 0 1 8-8z" fill="#e1f7ff"/><path d="m114 17h-100a8 8 0 0 0 -8 8v13.433h116v-13.433a8 8 0 0 0 -8-8z" fill="#0081d0"/><circle cx="21.57" cy="27.717" fill="#f37249" r="4"/><circle cx="37.626" cy="27.717" fill="#ffcc5b" r="4"/><path d="m122 25a8 8 0 0 0 -8-8h-53.738l-10.138 21.433h71.876z" fill="#a4def7"/><path d="m112.267 29.466h-44.744a1.75 1.75 0 0 1 0-3.5h44.744a1.75 1.75 0 0 1 0 3.5z" fill="#59b7e8"/></g><g fill="#0081d0"><path d="m57.245 56.464a1.781 1.781 0 0 1 -.388-.043c-5.538-1.254-7.056-6.7-7.084-9.4a1.749 1.749 0 0 1 1.727-1.768 1.771 1.771 0 0 1 1.769 1.724c0 .224.157 5.079 4.356 6.03a1.75 1.75 0 0 1 -.384 3.457z"/><path d="m70.733 56.448a1.75 1.75 0 0 1 -.375-3.459c4.213-.929 4.387-5.8 4.392-6.006a1.75 1.75 0 0 1 3.5.065c-.044 2.7-1.592 8.137-7.138 9.359a1.743 1.743 0 0 1 -.379.041z"/><path d="m49.217 75.908c-9.414 0-12.864-7.646-13.373-11.689a1.75 1.75 0 0 1 3.471-.444c.049.363 1.259 8.633 9.9 8.633a1.75 1.75 0 0 1 0 3.5z"/><path d="m78.783 75.908a1.75 1.75 0 0 1 0-3.5c8.714 0 9.856-8.274 9.9-8.627a1.75 1.75 0 0 1 3.472.438c-.508 4.043-3.955 11.689-13.372 11.689z"/><path d="m41.8 103.01c-.038 0-.075 0-.113 0a1.749 1.749 0 0 1 -1.636-1.849c.223-3.694 2.74-10.928 10.673-11.861a1.75 1.75 0 0 1 .41 3.476c-6.986.822-7.568 8.285-7.589 8.6a1.755 1.755 0 0 1 -1.745 1.634z"/><path d="m86.2 103.013a1.75 1.75 0 0 1 -1.745-1.64c-.022-.334-.612-7.78-7.589-8.6a1.75 1.75 0 0 1 .41-3.476c7.933.933 10.45 8.167 10.673 11.861a1.751 1.751 0 0 1 -1.649 1.852z"/><path d="m49.217 84.8h-11.193a1.75 1.75 0 0 1 0-3.5h11.193a1.75 1.75 0 0 1 0 3.5z"/><path d="m89.976 84.8h-11.193a1.75 1.75 0 0 1 0-3.5h11.193a1.75 1.75 0 0 1 0 3.5z"/></g><path d="m49.217 62.514v21.609a14.783 14.783 0 0 0 29.566 0v-21.609z" fill="#f37249"/><path d="m64 51.64c-5.36 0-9.7 4.87-9.7 10.87h19.4c0-6-4.34-10.87-9.7-10.87z" fill="#ffcc5b"/><path d="m64 84.8a1.75 1.75 0 0 1 -1.75-1.75v-20.54a1.75 1.75 0 1 1 3.5 0v20.535a1.75 1.75 0 0 1 -1.75 1.755z" fill="#ffcc5b"/></g></svg>