<?xml version="1.0"?>
<svg xmlns="http://www.w3.org/2000/svg" xmlns:xlink="http://www.w3.org/1999/xlink" xmlns:svgjs="http://svgjs.com/svgjs" version="1.1" width="512" height="512" x="0" y="0" viewBox="0 0 512 512" style="enable-background:new 0 0 512 512" xml:space="preserve" class=""><rect width="512" height="512" rx="20" ry="20" fill="#d5cd56" shape="rounded"/><g transform="matrix(0.7,0,0,0.7,76.80010986328125,76.80000000000001)"><g xmlns="http://www.w3.org/2000/svg"><path d="m263.501 181 2.13-30h-109.883l4.642-65h-75.14l-29.21 409.93c-.626 8.678 6.26 16.07 14.96 16.07h45c7.87 0 14.4-6.08 14.96-13.93l3.362-47.07h109.938l2.14-30h-109.935l4.285-60h109.92l2.14-30h-109.917l4.285-60h109.903l2.14-30h-109.9l4.285-60z" fill="#a58779" data-original="#a58779" style=""/><path d="m447.071 511.96c-.37.03-.73.04-1.09.04-7.79 0-14.38-6.03-14.94-13.93l-6.56-92.07h-128.96l2.13-30h124.69l-24.66-346h-51.68v-15l15-15h50.65c7.87 0 14.4 6.08 14.96 13.93l34.35 482c.59 8.27-5.63 15.44-13.89 16.03z" fill="#5a344b" data-original="#5a344b" style="" class=""/><path d="m250.251 86-4.632 65h-55.648v30h53.511l-4.275 60h-49.235v30h47.098l-4.275 60h-42.822v30h40.685l-4.275 60h-36.409v30h34.272l-3.202 44.93c-.626 8.678 6.26 16.07 14.96 16.07h45c7.87 0 14.4-6.08 14.96-13.93l29.357-412.07z" fill="#916a67" data-original="#916a67" style="" class=""/><path d="m361.001 0h-295c-8.284 0-15 6.716-15 15v61c0 8.284 6.716 15 15 15h280c8.284 0 15-6.716 15-15z" fill="#916a67" data-original="#916a67" style="" class=""/><path d="m361.001 0v76c0 8.28-6.72 15-15 15h-156.03v-91z" fill="#704c55" data-original="#704c55" style="" class=""/></g></g></svg>
